<svg width="236" height="180" viewBox="0 0 236 180" fill="none" xmlns="http://www.w3.org/2000/svg">
<rect width="236" height="180" fill="#E5E5E5"/>
<g clip-path="url(#clip0_102_121683)">
<rect width="1920" height="3671" transform="translate(-992 -723)" fill="#F9F9F9"/>
<g clip-path="url(#clip1_102_121683)" filter="url(#filter0_d_102_121683)">
<rect width="1260" height="3670.5" transform="translate(-662 -723)" fill="white"/>
<rect width="1260" height="460" transform="translate(-662 -80)" fill="white"/>
<g clip-path="url(#clip2_102_121683)">
<path d="M-16 -4.00001C-16 -10.6274 -10.6274 -16 -4 -16H240C246.627 -16 252 -10.6274 252 -4V304C252 310.627 246.627 316 240 316H-3.99999C-10.6274 316 -16 310.627 -16 304V-4.00001Z" fill="white"/>
<rect width="236" height="180" rx="12" fill="#F9F9F9"/>
<path d="M12 21C12 16.0294 16.0294 12 21 12H57C61.9706 12 66 16.0294 66 21C66 25.9706 61.9706 30 57 30H21C16.0294 30 12 25.9706 12 21Z" fill="#F4F8EC"/>
<path d="M20.852 21.424H25.94V20.008H20.852V21.424ZM30.5155 18.556H32.1595C32.2195 18.004 32.5675 17.476 33.3835 17.476C34.1515 17.476 34.5715 17.884 34.5715 18.568C34.5715 19.432 33.8515 19.708 32.8675 19.708H32.5195V21.088H32.8675C34.1155 21.088 34.7395 21.448 34.7395 22.432C34.7395 23.128 34.3075 23.656 33.4675 23.656C32.5675 23.656 32.0635 23.116 32.0275 22.36H30.3955C30.4675 24.196 31.7755 25.06 33.5035 25.06C35.3395 25.06 36.3475 24.004 36.3475 22.576C36.3475 21.388 35.7595 20.668 34.8715 20.392V20.344C35.5075 20.128 36.1915 19.456 36.1915 18.364C36.1915 17.068 35.2315 16.048 33.4315 16.048C31.7515 16.048 30.5995 16.936 30.5155 18.556ZM43.7711 18.436C43.6391 17.2 42.7991 16.048 41.0111 16.048C38.7911 16.048 37.8671 17.632 37.8671 20.488C37.8671 23.2 38.5151 25.024 41.1071 25.024C42.9791 25.024 44.0231 23.788 44.0231 22.096C44.0231 20.272 42.9311 19.24 41.3711 19.24C40.5191 19.24 39.7271 19.6 39.3311 20.26C39.3551 18.244 39.8591 17.428 40.9511 17.428C41.7071 17.428 42.0551 17.788 42.2111 18.436H43.7711ZM40.9871 20.62C41.9591 20.62 42.4271 21.232 42.4271 22.132C42.4271 23.032 41.8871 23.596 41.0231 23.596C40.0391 23.596 39.4871 23.008 39.4871 22.072C39.4871 21.076 40.2071 20.62 40.9871 20.62ZM48.0182 18.4C48.0182 19.66 48.8342 20.356 49.9262 20.356C51.0182 20.356 51.8342 19.66 51.8342 18.4C51.8342 17.152 51.0182 16.456 49.9262 16.456C48.8342 16.456 48.0182 17.152 48.0182 18.4ZM49.9142 17.464C50.3342 17.464 50.5982 17.74 50.5982 18.4C50.5982 19.06 50.3342 19.348 49.9142 19.348C49.5062 19.348 49.2542 19.06 49.2542 18.4C49.2542 17.74 49.5062 17.464 49.9142 17.464ZM49.3742 25H51.0062L55.7222 16.6H54.0782L49.3742 25ZM53.2862 23.188C53.2862 24.46 54.1022 25.144 55.1942 25.144C56.2742 25.144 57.0782 24.46 57.0782 23.188C57.0782 21.928 56.2742 21.244 55.1942 21.244C54.1022 21.244 53.2862 21.928 53.2862 23.188ZM55.1822 22.252C55.5902 22.252 55.8542 22.528 55.8542 23.188C55.8542 23.86 55.5902 24.136 55.1822 24.136C54.7622 24.136 54.4982 23.86 54.4982 23.188C54.4982 22.528 54.7622 22.252 55.1822 22.252Z" fill="#6A983C"/>
<path d="M-4 -15H240V-17H-4V-15ZM251 -4V304H253V-4H251ZM240 315H-3.99999V317H240V315ZM-15 304V-4.00001H-17V304H-15ZM-3.99999 315C-10.0751 315 -15 310.075 -15 304H-17C-17 311.18 -11.1797 317 -3.99999 317V315ZM251 304C251 310.075 246.075 315 240 315V317C247.18 317 253 311.18 253 304H251ZM240 -15C246.075 -15 251 -10.0751 251 -4H253C253 -11.1797 247.18 -17 240 -17V-15ZM-4 -17C-11.1797 -17 -17 -11.1797 -17 -4.00001H-15C-15 -10.0751 -10.0751 -15 -4 -15V-17Z" fill="#D1D1D1"/>
</g>
</g>
</g>
<defs>
<filter id="filter0_d_102_121683" x="-666" y="-725" width="1268" height="3678.5" filterUnits="userSpaceOnUse" color-interpolation-filters="sRGB">
<feFlood flood-opacity="0" result="BackgroundImageFix"/>
<feColorMatrix in="SourceAlpha" type="matrix" values="0 0 0 0 0 0 0 0 0 0 0 0 0 0 0 0 0 0 127 0" result="hardAlpha"/>
<feOffset dy="2"/>
<feGaussianBlur stdDeviation="2"/>
<feColorMatrix type="matrix" values="0 0 0 0 0 0 0 0 0 0 0 0 0 0 0 0 0 0 0.15 0"/>
<feBlend mode="normal" in2="BackgroundImageFix" result="effect1_dropShadow_102_121683"/>
<feBlend mode="normal" in="SourceGraphic" in2="effect1_dropShadow_102_121683" result="shape"/>
</filter>
<clipPath id="clip0_102_121683">
<rect width="1920" height="3671" fill="white" transform="translate(-992 -723)"/>
</clipPath>
<clipPath id="clip1_102_121683">
<rect width="1260" height="3670.5" fill="white" transform="translate(-662 -723)"/>
</clipPath>
<clipPath id="clip2_102_121683">
<rect width="1170" height="332" fill="white" transform="translate(-617 -16)"/>
</clipPath>
</defs>
</svg>
